<?xml version="1.0" standalone="no"?>
<!DOCTYPE svg PUBLIC "-//W3C//DTD SVG 1.1//EN" "http://www.w3.org/Graphics/SVG/1.1/DTD/svg11.dtd">
<svg xmlns="http://www.w3.org/2000/svg" xmlns:xlink="http://www.w3.org/1999/xlink" version="1.1" id="Layer_1" x="0px" y="0px" width="1133.8599853515625" height="566.9290161132812" viewBox="0 0 1133.86 566.929" enable-background="new 0 0 1133.86 566.929" xml:space="preserve">
<g>
	<defs>
		<rect id="SVGID_1_" width="1133.858" height="566.929"/>
	</defs>
	<clipPath id="SVGID_2_">
		<use xlink:href="#SVGID_1_" overflow="visible"/>
	</clipPath>
	<path clip-path="url(#SVGID_2_)" d="M216.219,302.019v-0.284c0-7.657-2.37-13.58-7.044-17.604   c-4.887-4.212-12.697-7.75-23.213-10.517c-9.103-2.351-14.954-4.33-17.885-6.05c-3.369-1.973-5.078-4.974-5.078-8.92   c0-3.435,1.355-6.085,4.141-8.101c2.556-1.85,6.123-2.789,10.603-2.789c7.802,0,16.369,3.064,25.475,9.112l9.321-13.515   c-9.867-7.43-21.473-11.196-34.509-11.196c-9.76,0-17.819,2.632-23.954,7.825c-6.039,5.114-9.1,11.97-9.1,20.378   c0,4.825,0.671,8.707,2.052,11.866c1.326,3.04,3.465,5.632,6.355,7.705c3.048,2.184,6.293,3.955,9.645,5.264   c3.4,1.336,7.979,2.729,13.61,4.136c8.38,2.171,13.843,4.146,16.708,6.039c3.217,2.128,4.849,4.99,4.849,8.508   c0,3.813-1.589,6.774-4.722,8.804c-2.869,1.857-6.769,2.801-11.592,2.801c-9.979,0-19.918-3.827-29.555-11.376l-10.594,12.688   c11.194,9.481,24.552,14.287,39.721,14.287c10.533,0,19.081-2.616,25.407-7.776C213.07,318.237,216.219,311.077,216.219,302.019    M282.479,291.19l36.809-57.608h-20.423l-25.34,41.888l-24.898-41.888h-21.136l36.822,58.037v38.033h18.166V291.19z    M406.115,329.652h15.844v-96.07h-17.882v65.239l-49.643-65.239H337.02v96.07h17.88v-67.228L406.115,329.652z M474.509,305.147   c-5.767-6.416-8.692-14.332-8.692-23.531c0-9.291,2.952-17.235,8.774-23.611c5.864-6.423,13.298-9.68,22.094-9.68   c8.674,0,17.2,3.525,25.357,10.479l11.549-13.312c-4.526-4.249-9.556-7.559-14.962-9.848c-5.921-2.504-13.257-3.774-21.802-3.774   c-14.525,0-26.644,4.849-36.023,14.411c-9.389,9.573-14.151,21.461-14.151,35.335c0,14.064,4.737,26.001,14.077,35.478   c9.333,9.47,21.189,14.271,35.242,14.271c8.8,0,16.327-1.451,22.369-4.313c5.599-2.652,10.951-6.554,15.921-11.601l-11.406-11.521   c-4.004,3.497-7.868,6.164-11.498,7.933c-4.137,2.022-9.074,3.046-14.673,3.046C487.789,314.909,480.328,311.625,474.509,305.147    M804.973,320.352c7.339-7.203,11.061-18.074,11.061-32.315v-54.455h-18.166v55.311c0,8.255-2.065,14.688-6.14,19.121   c-4.114,4.48-9.938,6.752-17.309,6.752c-7.387,0-13.219-2.352-17.333-6.988c-4.059-4.569-6.116-11.163-6.116-19.598v-54.598   h-18.166v55.167c0,13.868,3.652,24.526,10.855,31.681c7.203,7.161,17.456,10.792,30.474,10.792   C787.25,331.222,797.627,327.564,804.973,320.352 M907.517,313.482h-49.796v-79.9h-18.166v96.07h67.962V313.482z M992.126,250.038   v-16.456h-78.948v16.456h30.391v79.614h18.168v-79.614H992.126z"/>
</g>
<path fill="#ED164D" d="M663.357,254.267l-39.593,99.493h20.562l27.907-75.843l27.913,75.843h19.98l-39.594-99.493H663.357z   M604.354,312.662l39.594-99.493h-19.98l-27.912,75.843l-27.908-75.843h-20.561l39.593,99.493H604.354z"/>
</svg>